<svg xmlns="http://www.w3.org/2000/svg" xmlns:xlink="http://www.w3.org/1999/xlink" width="600" zoomAndPan="magnify" viewBox="0 0 450 225" height="300" preserveAspectRatio="xMidYMid meet" version="1.0"><defs><g/><clipPath id="e455c2c557"><path d="M 35 50.402344 L 108 50.402344 L 108 123 L 35 123 Z M 35 50.402344 " clip-rule="nonzero"/></clipPath><clipPath id="d2b1f3c9c3"><path d="M 22.5 124 L 118.5 124 L 118.5 174.902344 L 22.5 174.902344 Z M 22.5 124 " clip-rule="nonzero"/></clipPath><clipPath id="7bff1a3c84"><path d="M 66 76.84375 L 88.769531 76.84375 L 88.769531 100 L 66 100 Z M 66 76.84375 " clip-rule="nonzero"/></clipPath><clipPath id="c2fd0a75da"><path d="M 52.769531 94 L 88.769531 94 L 88.769531 112.84375 L 52.769531 112.84375 Z M 52.769531 94 " clip-rule="nonzero"/></clipPath></defs><g clip-path="url(#e455c2c557)"><path fill="#ffffff" d="M 38.71875 62.335938 C 38.71875 57.636719 42.546875 53.816406 47.253906 53.816406 L 95.074219 53.816406 C 99.785156 53.816406 103.605469 57.636719 103.605469 62.335938 L 103.605469 122.859375 L 107.027344 122.859375 L 107.027344 62.335938 C 107.027344 55.761719 101.664062 50.402344 95.074219 50.402344 L 47.253906 50.402344 C 40.664062 50.402344 35.308594 55.761719 35.308594 62.335938 L 35.308594 122.859375 L 38.71875 122.859375 Z M 38.71875 62.335938 " fill-opacity="1" fill-rule="nonzero"/></g><path fill="#ffffff" d="M 40.765625 67.84375 L 101.5625 67.84375 L 101.5625 122.859375 L 40.765625 122.859375 Z M 40.765625 67.84375 " fill-opacity="1" fill-rule="nonzero"/><path fill="#ffffff" d="M 95.074219 56.1875 L 47.253906 56.1875 C 43.671875 56.1875 40.761719 59.09375 40.761719 62.664062 L 40.761719 65.871094 L 101.558594 65.871094 L 101.558594 62.664062 C 101.558594 59.097656 98.648438 56.1875 95.074219 56.1875 Z M 79.570312 62.136719 L 62.761719 62.136719 C 62.144531 62.136719 61.648438 61.640625 61.648438 61.03125 C 61.648438 60.421875 62.148438 59.929688 62.761719 59.929688 L 79.570312 59.929688 C 80.179688 59.929688 80.675781 60.425781 80.675781 61.03125 C 80.675781 61.640625 80.179688 62.136719 79.570312 62.136719 Z M 89.566406 62.890625 C 88.539062 62.890625 87.714844 62.054688 87.714844 61.03125 C 87.714844 60.003906 88.542969 59.175781 89.566406 59.175781 C 90.59375 59.175781 91.425781 60.003906 91.425781 61.03125 C 91.425781 62.054688 90.59375 62.890625 89.566406 62.890625 Z M 89.566406 62.890625 " fill-opacity="1" fill-rule="nonzero"/><path fill="#ffffff" d="M 101.644531 124.542969 L 95.90625 124.542969 C 96.300781 128.777344 95.613281 133.058594 93.804688 137.042969 C 91.0625 143.085938 86.121094 147.703125 79.902344 150.027344 C 77.085938 151.085938 74.144531 151.625 71.164062 151.625 C 60.867188 151.625 51.507812 145.152344 47.882812 135.515625 C 46.539062 131.960938 46.070312 128.222656 46.40625 124.542969 L 40.6875 124.542969 C 40.367188 128.898438 40.957031 133.308594 42.546875 137.519531 C 46.996094 149.367188 58.496094 157.320312 71.164062 157.320312 C 74.832031 157.320312 78.453125 156.664062 81.910156 155.363281 C 89.5625 152.492188 95.632812 146.820312 99.007812 139.390625 C 101.144531 134.660156 102.027344 129.585938 101.644531 124.542969 Z M 101.644531 124.542969 " fill-opacity="1" fill-rule="nonzero"/><path fill="#ffffff" d="M 94.074219 124.542969 L 48.25 124.542969 C 47.839844 128.144531 48.269531 131.808594 49.574219 135.292969 C 52.941406 144.230469 61.621094 150.238281 71.183594 150.238281 C 73.945312 150.238281 76.671875 149.742188 79.292969 148.757812 C 85.0625 146.597656 89.640625 142.308594 92.1875 136.707031 C 93.949219 132.839844 94.5625 128.660156 94.074219 124.542969 Z M 94.074219 124.542969 " fill-opacity="1" fill-rule="nonzero"/><g clip-path="url(#d2b1f3c9c3)"><path fill="#ffffff" d="M 117.1875 137.054688 L 109.097656 133.382812 C 107.753906 132.773438 106.777344 131.082031 106.921875 129.613281 L 107.082031 125.203125 C 107.070312 124.988281 107.09375 124.765625 107.136719 124.546875 L 103.515625 124.546875 C 103.542969 125.113281 103.558594 125.675781 103.558594 126.246094 C 103.558594 144.082031 89.023438 158.59375 71.160156 158.59375 C 53.300781 158.59375 38.769531 144.082031 38.769531 126.246094 C 38.769531 125.675781 38.785156 125.113281 38.8125 124.546875 L 35.324219 124.546875 L 35.234375 127.238281 C 35.285156 128.71875 34.207031 130.351562 32.820312 130.867188 L 24.503906 133.988281 C 23.128906 134.503906 22.421875 136.0625 22.9375 137.4375 L 27.484375 149.507812 C 28.007812 150.894531 29.554688 151.589844 30.9375 151.074219 L 39.253906 147.960938 C 40.640625 147.441406 42.519531 147.949219 43.464844 149.089844 L 46.480469 152.300781 C 47.566406 153.308594 47.949219 155.226562 47.335938 156.574219 L 43.664062 164.660156 C 43.058594 165.996094 43.652344 167.589844 44.996094 168.203125 L 56.769531 173.53125 C 58.113281 174.140625 59.707031 173.539062 60.320312 172.199219 L 63.992188 164.109375 C 64.601562 162.765625 66.304688 161.796875 67.769531 161.9375 L 72.191406 162.097656 C 73.660156 162.035156 75.292969 163.128906 75.8125 164.507812 L 78.9375 172.816406 C 79.453125 174.199219 81.011719 174.898438 82.386719 174.378906 L 94.484375 169.839844 C 95.863281 169.320312 96.570312 167.773438 96.046875 166.394531 L 92.917969 158.085938 C 92.40625 156.699219 92.917969 154.8125 94.054688 153.882812 L 97.28125 150.863281 C 98.285156 149.785156 100.210938 149.402344 101.550781 150.011719 L 109.648438 153.683594 C 110.996094 154.289062 112.597656 153.6875 113.199219 152.351562 L 118.535156 140.597656 C 119.132812 139.253906 118.539062 137.65625 117.1875 137.054688 Z M 117.1875 137.054688 " fill-opacity="1" fill-rule="nonzero"/></g><g clip-path="url(#7bff1a3c84)"><path fill="#0f172a" d="M 77.519531 99.34375 C 83.742188 99.34375 88.769531 94.316406 88.769531 88.09375 C 88.769531 81.867188 83.742188 76.84375 77.519531 76.84375 C 71.292969 76.84375 66.269531 81.867188 66.269531 88.09375 C 66.269531 94.316406 71.292969 99.34375 77.519531 99.34375 Z M 77.519531 78.34375 C 82.917969 78.34375 87.269531 82.691406 87.269531 88.09375 C 87.269531 93.492188 82.917969 97.84375 77.519531 97.84375 C 72.117188 97.84375 67.769531 93.492188 67.769531 88.09375 C 67.769531 82.691406 72.117188 78.34375 77.519531 78.34375 Z M 77.519531 78.34375 " fill-opacity="1" fill-rule="nonzero"/></g><path fill="#0f172a" d="M 77.519531 96.34375 C 82.09375 96.34375 85.769531 92.667969 85.769531 88.09375 C 85.769531 84.191406 82.992188 80.816406 79.167969 79.992188 C 78.792969 79.917969 78.34375 80.21875 78.269531 80.59375 C 78.195312 80.96875 78.417969 81.417969 78.867188 81.492188 C 82.019531 82.09375 84.269531 84.867188 84.269531 88.09375 C 84.269531 91.84375 81.269531 94.84375 77.519531 94.84375 C 73.769531 94.84375 70.769531 91.84375 70.769531 88.09375 C 70.769531 84.867188 73.019531 82.09375 76.167969 81.492188 C 76.542969 81.417969 76.84375 80.96875 76.769531 80.59375 C 76.695312 80.21875 76.320312 79.917969 75.867188 79.992188 C 72.042969 80.816406 69.269531 84.191406 69.269531 88.09375 C 69.269531 92.667969 72.945312 96.34375 77.519531 96.34375 Z M 77.519531 96.34375 " fill-opacity="1" fill-rule="nonzero"/><g clip-path="url(#c2fd0a75da)"><path fill="#0f172a" d="M 83.519531 104.59375 C 83.519531 104.59375 83.445312 104.59375 83.445312 104.59375 L 78.570312 105.265625 C 78.417969 103.917969 77.820312 102.640625 76.769531 101.742188 C 75.644531 100.84375 74.292969 100.390625 72.867188 100.542969 L 70.242188 100.84375 L 64.992188 96.867188 C 64.542969 96.492188 63.945312 96.34375 63.417969 96.417969 L 58.769531 96.941406 L 58.769531 94.84375 C 58.769531 94.390625 58.46875 94.09375 58.019531 94.09375 L 53.519531 94.09375 C 53.070312 94.09375 52.769531 94.390625 52.769531 94.84375 L 52.769531 111.34375 C 52.769531 111.792969 53.070312 112.09375 53.519531 112.09375 L 58.019531 112.09375 C 58.46875 112.09375 58.769531 111.792969 58.769531 111.34375 L 58.769531 110.742188 L 72.945312 112.84375 C 72.945312 112.84375 73.019531 112.84375 73.019531 112.84375 C 73.019531 112.84375 73.09375 112.84375 73.09375 112.84375 L 88.09375 110.59375 C 88.46875 110.515625 88.769531 110.21875 88.769531 109.84375 C 88.769531 106.917969 86.445312 104.59375 83.519531 104.59375 Z M 57.269531 110.59375 L 54.269531 110.59375 L 54.269531 95.59375 L 57.269531 95.59375 Z M 73.019531 111.34375 L 58.769531 109.167969 L 58.769531 98.441406 L 63.492188 97.917969 C 63.71875 97.917969 63.867188 97.917969 64.019531 98.066406 L 69.570312 102.191406 C 69.71875 102.34375 69.945312 102.34375 70.09375 102.34375 L 72.945312 102.042969 C 73.992188 101.96875 74.96875 102.265625 75.71875 102.941406 C 76.46875 103.617188 76.992188 104.515625 76.992188 105.492188 L 73.019531 106.09375 L 67.09375 105.492188 C 66.644531 105.492188 66.34375 105.71875 66.269531 106.167969 C 66.195312 106.542969 66.492188 106.917969 66.945312 106.992188 L 72.945312 107.59375 C 73.019531 107.59375 73.09375 107.59375 73.09375 107.59375 L 83.519531 106.09375 C 85.320312 106.09375 86.894531 107.441406 87.195312 109.167969 Z M 73.019531 111.34375 " fill-opacity="1" fill-rule="nonzero"/></g><path fill="#0f172a" d="M 75.269531 86.59375 C 75.269531 87.867188 76.242188 88.84375 77.519531 88.84375 C 77.96875 88.84375 78.269531 89.140625 78.269531 89.59375 C 78.269531 90.042969 77.96875 90.34375 77.519531 90.34375 L 76.019531 90.34375 C 75.570312 90.34375 75.269531 90.640625 75.269531 91.09375 C 75.269531 91.542969 75.570312 91.84375 76.019531 91.84375 L 76.769531 91.84375 L 76.769531 92.59375 C 76.769531 93.042969 77.070312 93.34375 77.519531 93.34375 C 77.96875 93.34375 78.269531 93.042969 78.269531 92.59375 L 78.269531 91.691406 C 79.167969 91.390625 79.769531 90.566406 79.769531 89.59375 C 79.769531 88.316406 78.792969 87.34375 77.519531 87.34375 C 77.070312 87.34375 76.769531 87.042969 76.769531 86.59375 C 76.769531 86.140625 77.070312 85.84375 77.519531 85.84375 L 79.019531 85.84375 C 79.46875 85.84375 79.769531 85.542969 79.769531 85.09375 C 79.769531 84.640625 79.46875 84.34375 79.019531 84.34375 L 78.269531 84.34375 L 78.269531 83.59375 C 78.269531 83.140625 77.96875 82.84375 77.519531 82.84375 C 77.070312 82.84375 76.769531 83.140625 76.769531 83.59375 L 76.769531 84.492188 C 75.867188 84.792969 75.269531 85.617188 75.269531 86.59375 Z M 75.269531 86.59375 " fill-opacity="1" fill-rule="nonzero"/><g fill="#ffffff" fill-opacity="1"><g transform="translate(130.63922, 125.484497)"><g><path d="M 23.964844 0 L 31.898438 0 L 19.746094 -33.753906 L 11.417969 -33.753906 L -0.730469 0 L 7.199219 0 L 9.28125 -6.355469 L 21.882812 -6.355469 Z M 11.25 -12.546875 L 15.582031 -25.933594 L 19.914062 -12.546875 Z M 11.25 -12.546875 "/></g></g></g><g fill="#ffffff" fill-opacity="1"><g transform="translate(160.901121, 125.484497)"><g><path d="M 16.933594 -22.953125 C 14.34375 -22.953125 12.207031 -22.050781 10.519531 -20.53125 L 10.519531 -22.445312 L 3.320312 -22.503906 L 3.320312 13.5 L 10.519531 13.558594 L 10.519531 -1.96875 C 12.207031 -0.449219 14.34375 0.449219 16.933594 0.449219 C 23.121094 0.449219 28.015625 -4.726562 28.015625 -11.25 C 28.015625 -17.777344 23.121094 -22.953125 16.933594 -22.953125 Z M 15.527344 -5.90625 C 12.546875 -5.90625 10.183594 -8.269531 10.183594 -11.25 C 10.183594 -14.234375 12.546875 -16.59375 15.527344 -16.59375 C 18.507812 -16.59375 20.871094 -14.234375 20.871094 -11.25 C 20.871094 -8.269531 18.507812 -5.90625 15.527344 -5.90625 Z M 15.527344 -5.90625 "/></g></g></g><g fill="#ffffff" fill-opacity="1"><g transform="translate(189.75679, 125.484497)"><g><path d="M 16.933594 -22.953125 C 14.34375 -22.953125 12.207031 -22.050781 10.519531 -20.53125 L 10.519531 -22.445312 L 3.320312 -22.503906 L 3.320312 13.5 L 10.519531 13.558594 L 10.519531 -1.96875 C 12.207031 -0.449219 14.34375 0.449219 16.933594 0.449219 C 23.121094 0.449219 28.015625 -4.726562 28.015625 -11.25 C 28.015625 -17.777344 23.121094 -22.953125 16.933594 -22.953125 Z M 15.527344 -5.90625 C 12.546875 -5.90625 10.183594 -8.269531 10.183594 -11.25 C 10.183594 -14.234375 12.546875 -16.59375 15.527344 -16.59375 C 18.507812 -16.59375 20.871094 -14.234375 20.871094 -11.25 C 20.871094 -8.269531 18.507812 -5.90625 15.527344 -5.90625 Z M 15.527344 -5.90625 "/></g></g></g><g fill="#ffffff" fill-opacity="1"><g transform="translate(218.612462, 125.484497)"><g><path d="M 23.910156 -27.226562 L 23.910156 -33.753906 L 3.601562 -33.753906 L 3.601562 0 L 23.910156 0 L 23.910156 -6.527344 L 11.027344 -6.527344 L 11.027344 -13.613281 L 22.050781 -13.613281 L 22.050781 -20.140625 L 11.027344 -20.140625 L 11.027344 -27.226562 Z M 23.910156 -27.226562 "/></g></g></g><g fill="#ffffff" fill-opacity="1"><g transform="translate(243.924416, 125.484497)"><g><path d="M 27.339844 -22.503906 L 18.734375 -22.503906 L 13.5 -16.3125 L 8.269531 -22.503906 L -0.28125 -22.503906 L 9.226562 -11.25 L -0.28125 0 L 8.382812 0 L 13.558594 -6.132812 L 18.734375 0 L 27.339844 0 L 17.832031 -11.195312 Z M 27.339844 -22.503906 "/></g></g></g><g fill="#ffffff" fill-opacity="1"><g transform="translate(270.080117, 125.484497)"><g><path d="M 16.933594 -22.953125 C 14.34375 -22.953125 12.207031 -22.050781 10.519531 -20.53125 L 10.519531 -22.445312 L 3.320312 -22.503906 L 3.320312 13.5 L 10.519531 13.558594 L 10.519531 -1.96875 C 12.207031 -0.449219 14.34375 0.449219 16.933594 0.449219 C 23.121094 0.449219 28.015625 -4.726562 28.015625 -11.25 C 28.015625 -17.777344 23.121094 -22.953125 16.933594 -22.953125 Z M 15.527344 -5.90625 C 12.546875 -5.90625 10.183594 -8.269531 10.183594 -11.25 C 10.183594 -14.234375 12.546875 -16.59375 15.527344 -16.59375 C 18.507812 -16.59375 20.871094 -14.234375 20.871094 -11.25 C 20.871094 -8.269531 18.507812 -5.90625 15.527344 -5.90625 Z M 15.527344 -5.90625 "/></g></g></g><g fill="#ffffff" fill-opacity="1"><g transform="translate(298.935794, 125.484497)"><g><path d="M 26.214844 -11.308594 C 26.214844 -18.339844 21.378906 -23.007812 14.121094 -23.007812 C 6.863281 -23.007812 1.742188 -18.28125 1.742188 -11.25 C 1.742188 -4.21875 6.808594 0.449219 14.34375 0.449219 C 20.589844 0.449219 24.753906 -2.867188 25.878906 -7.761719 L 18.957031 -7.761719 C 18.339844 -5.964844 16.707031 -4.894531 14.234375 -4.894531 C 10.96875 -4.894531 9.28125 -6.863281 9 -10.070312 L 26.214844 -10.070312 Z M 14.234375 -17.496094 C 16.652344 -17.496094 18.058594 -16.371094 18.789062 -14.402344 L 9.449219 -14.402344 C 10.183594 -16.3125 11.699219 -17.496094 14.234375 -17.496094 Z M 14.234375 -17.496094 "/></g></g></g><g fill="#ffffff" fill-opacity="1"><g transform="translate(325.935232, 125.484497)"><g><path d="M 16.933594 -22.953125 C 14.34375 -22.953125 12.09375 -21.714844 10.519531 -19.746094 L 10.519531 -22.503906 L 3.320312 -22.503906 L 3.320312 0 L 10.519531 0 L 10.519531 -13.050781 C 10.519531 -15.078125 12.207031 -16.59375 14.289062 -16.59375 C 16.371094 -16.59375 17.832031 -15.078125 17.832031 -13.050781 L 17.832031 0 L 24.976562 0 L 24.976562 -14.234375 C 24.976562 -19.183594 21.378906 -22.953125 16.933594 -22.953125 Z M 16.933594 -22.953125 "/></g></g></g><g fill="#ffffff" fill-opacity="1"><g transform="translate(352.878423, 125.484497)"><g><path d="M 10.574219 0.449219 C 15.640625 0.449219 18.734375 -2.644531 18.734375 -6.863281 C 18.734375 -11.363281 15.019531 -13.164062 11.8125 -14.402344 C 10.183594 -15.078125 9.394531 -15.414062 9.394531 -16.257812 C 9.394531 -16.988281 9.957031 -17.550781 11.195312 -17.550781 C 12.65625 -17.550781 14.007812 -16.765625 14.683594 -15.921875 L 18.28125 -19.96875 C 16.59375 -21.660156 13.839844 -22.953125 10.6875 -22.953125 C 5.570312 -22.953125 2.304688 -19.578125 2.304688 -15.75 C 2.304688 -11.25 6.808594 -9.730469 9.394531 -8.777344 C 11.417969 -7.988281 12.09375 -7.425781 12.09375 -6.636719 C 12.09375 -5.738281 11.308594 -5.230469 10.125 -5.230469 C 8.945312 -5.230469 7.371094 -5.683594 6.355469 -7.59375 L 1.070312 -4.949219 C 2.417969 -1.460938 6.582031 0.449219 10.574219 0.449219 Z M 10.574219 0.449219 "/></g></g></g><g fill="#ffffff" fill-opacity="1"><g transform="translate(371.777964, 125.484497)"><g><path d="M 26.214844 -11.308594 C 26.214844 -18.339844 21.378906 -23.007812 14.121094 -23.007812 C 6.863281 -23.007812 1.742188 -18.28125 1.742188 -11.25 C 1.742188 -4.21875 6.808594 0.449219 14.34375 0.449219 C 20.589844 0.449219 24.753906 -2.867188 25.878906 -7.761719 L 18.957031 -7.761719 C 18.339844 -5.964844 16.707031 -4.894531 14.234375 -4.894531 C 10.96875 -4.894531 9.28125 -6.863281 9 -10.070312 L 26.214844 -10.070312 Z M 14.234375 -17.496094 C 16.652344 -17.496094 18.058594 -16.371094 18.789062 -14.402344 L 9.449219 -14.402344 C 10.183594 -16.3125 11.699219 -17.496094 14.234375 -17.496094 Z M 14.234375 -17.496094 "/></g></g></g><g fill="#ffffff" fill-opacity="1"><g transform="translate(398.777402, 125.484497)"><g><path d="M 10.574219 0.449219 C 15.640625 0.449219 18.734375 -2.644531 18.734375 -6.863281 C 18.734375 -11.363281 15.019531 -13.164062 11.8125 -14.402344 C 10.183594 -15.078125 9.394531 -15.414062 9.394531 -16.257812 C 9.394531 -16.988281 9.957031 -17.550781 11.195312 -17.550781 C 12.65625 -17.550781 14.007812 -16.765625 14.683594 -15.921875 L 18.28125 -19.96875 C 16.59375 -21.660156 13.839844 -22.953125 10.6875 -22.953125 C 5.570312 -22.953125 2.304688 -19.578125 2.304688 -15.75 C 2.304688 -11.25 6.808594 -9.730469 9.394531 -8.777344 C 11.417969 -7.988281 12.09375 -7.425781 12.09375 -6.636719 C 12.09375 -5.738281 11.308594 -5.230469 10.125 -5.230469 C 8.945312 -5.230469 7.371094 -5.683594 6.355469 -7.59375 L 1.070312 -4.949219 C 2.417969 -1.460938 6.582031 0.449219 10.574219 0.449219 Z M 10.574219 0.449219 "/></g></g></g></svg>