<svg xmlns="http://www.w3.org/2000/svg" xmlns:xlink="http://www.w3.org/1999/xlink" width="500" zoomAndPan="magnify" viewBox="0 0 375 374.999991" height="500" preserveAspectRatio="xMidYMid meet" version="1.0"><defs><clipPath id="d2cff86060"><path d="M 162 99 L 342.4375 99 L 342.4375 278 L 162 278 Z M 162 99 " clip-rule="nonzero"/></clipPath><clipPath id="91d324e63c"><path d="M 33 68 L 158 68 L 158 307.492188 L 33 307.492188 Z M 33 68 " clip-rule="nonzero"/></clipPath><clipPath id="5823069129"><path d="M 222 143.015625 L 277.917969 143.015625 L 277.917969 199 L 222 199 Z M 222 143.015625 " clip-rule="nonzero"/></clipPath><clipPath id="2141ca69e4"><path d="M 188.667969 185 L 277.917969 185 L 277.917969 232.265625 L 188.667969 232.265625 Z M 188.667969 185 " clip-rule="nonzero"/></clipPath></defs><g clip-path="url(#d2cff86060)"><path fill="#726bea" d="M 312.746094 107.851562 C 324.4375 107.851562 333.945312 117.378906 333.945312 129.09375 L 333.945312 248.085938 C 333.945312 259.804688 324.4375 269.316406 312.746094 269.316406 L 162.160156 269.316406 L 162.160156 277.824219 L 312.746094 277.824219 C 329.105469 277.824219 342.4375 264.480469 342.4375 248.078125 L 342.4375 129.085938 C 342.4375 112.691406 329.105469 99.359375 312.746094 99.359375 L 162.160156 99.359375 L 162.160156 107.851562 Z M 312.746094 107.851562 " fill-opacity="1" fill-rule="nonzero"/></g><path fill="#726bea" d="M 299.042969 112.941406 L 299.042969 264.230469 L 162.160156 264.230469 L 162.160156 112.941406 Z M 299.042969 112.941406 " fill-opacity="1" fill-rule="nonzero"/><path fill="#726bea" d="M 328.046875 248.078125 L 328.046875 129.085938 C 328.046875 120.179688 320.808594 112.933594 311.933594 112.933594 L 303.945312 112.933594 L 303.945312 264.222656 L 311.925781 264.222656 C 320.800781 264.222656 328.046875 256.980469 328.046875 248.078125 Z M 313.246094 209.503906 L 313.246094 167.675781 C 313.246094 166.144531 314.472656 164.910156 315.992188 164.910156 C 317.507812 164.910156 318.734375 166.148438 318.734375 167.675781 L 318.734375 209.503906 C 318.734375 211.023438 317.5 212.257812 315.992188 212.257812 C 314.472656 212.257812 313.246094 211.023438 313.246094 209.503906 Z M 311.367188 234.382812 C 311.367188 231.820312 313.441406 229.769531 315.992188 229.769531 C 318.546875 229.769531 320.613281 231.828125 320.613281 234.382812 C 320.613281 236.9375 318.550781 239.003906 315.992188 239.003906 C 313.441406 239.003906 311.367188 236.9375 311.367188 234.382812 Z M 311.367188 234.382812 " fill-opacity="1" fill-rule="nonzero"/><path fill="#726bea" d="M 157.972656 264.433594 L 157.972656 250.15625 C 147.441406 251.132812 136.789062 249.421875 126.878906 244.921875 C 111.847656 238.097656 100.359375 225.804688 94.570312 210.328125 C 91.9375 203.320312 90.597656 196.003906 90.597656 188.585938 C 90.597656 162.964844 106.703125 139.675781 130.675781 130.65625 C 139.523438 127.3125 148.824219 126.144531 157.972656 126.980469 L 157.972656 112.753906 C 147.140625 111.949219 136.167969 113.421875 125.691406 117.371094 C 96.21875 128.445312 76.429688 157.066406 76.429688 188.585938 C 76.429688 197.710938 78.066406 206.71875 81.296875 215.324219 C 88.441406 234.371094 102.554688 249.476562 121.03125 257.871094 C 132.804688 263.191406 145.433594 265.382812 157.972656 264.433594 Z M 157.972656 264.433594 " fill-opacity="1" fill-rule="nonzero"/><path fill="#726bea" d="M 157.972656 245.597656 L 157.972656 131.566406 C 149.019531 130.550781 139.898438 131.617188 131.234375 134.859375 C 108.992188 143.242188 94.042969 164.835938 94.042969 188.632812 C 94.042969 195.503906 95.28125 202.296875 97.726562 208.8125 C 103.105469 223.167969 113.773438 234.566406 127.710938 240.902344 C 137.335938 245.289062 147.738281 246.8125 157.972656 245.597656 Z M 157.972656 245.597656 " fill-opacity="1" fill-rule="nonzero"/><g clip-path="url(#91d324e63c)"><path fill="#726bea" d="M 126.851562 303.113281 L 135.988281 282.976562 C 137.496094 279.640625 141.703125 277.207031 145.359375 277.5625 L 156.332031 277.960938 C 156.871094 277.933594 157.421875 277.996094 157.964844 278.09375 L 157.964844 269.085938 C 156.558594 269.160156 155.160156 269.199219 153.738281 269.199219 C 109.371094 269.199219 73.261719 233.027344 73.261719 188.574219 C 73.261719 144.136719 109.371094 107.972656 153.738281 107.972656 C 155.160156 107.972656 156.558594 108.019531 157.964844 108.078125 L 157.964844 99.40625 L 151.265625 99.179688 C 147.582031 99.304688 143.523438 96.621094 142.242188 93.175781 L 134.480469 72.480469 C 133.195312 69.054688 129.320312 67.300781 125.902344 68.582031 L 95.867188 79.890625 C 92.414062 81.191406 90.683594 85.042969 91.96875 88.488281 L 99.714844 109.1875 C 101.007812 112.632812 99.746094 117.304688 96.90625 119.660156 L 88.914062 127.164062 C 86.414062 129.863281 81.632812 130.820312 78.285156 129.296875 L 58.167969 120.15625 C 54.839844 118.648438 50.875 120.128906 49.351562 123.46875 L 36.09375 152.769531 C 34.585938 156.109375 36.082031 160.074219 39.40625 161.597656 L 59.539062 170.742188 C 62.878906 172.253906 65.289062 176.496094 64.941406 180.144531 L 64.542969 191.140625 C 64.699219 194.796875 61.976562 198.863281 58.550781 200.152344 L 37.878906 207.925781 C 34.4375 209.207031 32.691406 213.09375 33.992188 216.511719 L 45.277344 246.617188 C 46.570312 250.046875 50.421875 251.808594 53.855469 250.507812 L 74.523438 242.71875 C 77.96875 241.445312 82.664062 242.71875 84.980469 245.550781 L 92.496094 253.574219 C 95.175781 256.070312 96.132812 260.867188 94.609375 264.203125 L 85.480469 284.347656 C 83.96875 287.707031 85.464844 291.691406 88.792969 293.179688 L 118.035156 306.460938 C 121.375 307.949219 125.347656 306.472656 126.851562 303.113281 Z M 126.851562 303.113281 " fill-opacity="1" fill-rule="nonzero"/></g><g clip-path="url(#5823069129)"><path fill="#ffffff" d="M 250.027344 198.796875 C 265.460938 198.796875 277.917969 186.339844 277.917969 170.90625 C 277.917969 155.472656 265.460938 143.015625 250.027344 143.015625 C 234.59375 143.015625 222.136719 155.472656 222.136719 170.90625 C 222.136719 186.339844 234.59375 198.796875 250.027344 198.796875 Z M 250.027344 146.734375 C 263.414062 146.734375 274.199219 157.519531 274.199219 170.90625 C 274.199219 184.292969 263.414062 195.078125 250.027344 195.078125 C 236.640625 195.078125 225.855469 184.292969 225.855469 170.90625 C 225.855469 157.519531 236.640625 146.734375 250.027344 146.734375 Z M 250.027344 146.734375 " fill-opacity="1" fill-rule="nonzero"/></g><path fill="#ffffff" d="M 250.027344 191.359375 C 261.367188 191.359375 270.480469 182.246094 270.480469 170.90625 C 270.480469 161.238281 263.601562 152.871094 254.117188 150.824219 C 253.1875 150.636719 252.070312 151.382812 251.886719 152.3125 C 251.699219 153.242188 252.257812 154.355469 253.375 154.542969 C 261.183594 156.03125 266.761719 162.910156 266.761719 170.90625 C 266.761719 180.203125 259.324219 187.640625 250.027344 187.640625 C 240.730469 187.640625 233.292969 180.203125 233.292969 170.90625 C 233.292969 162.910156 238.871094 156.03125 246.679688 154.542969 C 247.609375 154.355469 248.351562 153.242188 248.167969 152.3125 C 247.980469 151.382812 247.050781 150.636719 245.9375 150.824219 C 236.453125 152.871094 229.574219 161.238281 229.574219 170.90625 C 229.574219 182.246094 238.683594 191.359375 250.027344 191.359375 Z M 250.027344 191.359375 " fill-opacity="1" fill-rule="nonzero"/><g clip-path="url(#2141ca69e4)"><path fill="#ffffff" d="M 264.902344 211.8125 C 264.902344 211.8125 264.714844 211.8125 264.714844 211.8125 L 252.628906 213.484375 C 252.257812 210.136719 250.769531 206.976562 248.167969 204.746094 C 245.378906 202.515625 242.03125 201.398438 238.5 201.769531 L 231.992188 202.515625 L 218.976562 192.660156 C 217.859375 191.730469 216.371094 191.359375 215.070312 191.542969 L 203.542969 192.847656 L 203.542969 187.640625 C 203.542969 186.523438 202.796875 185.78125 201.683594 185.78125 L 190.527344 185.78125 C 189.410156 185.78125 188.667969 186.523438 188.667969 187.640625 L 188.667969 228.546875 C 188.667969 229.660156 189.410156 230.40625 190.527344 230.40625 L 201.683594 230.40625 C 202.796875 230.40625 203.542969 229.660156 203.542969 228.546875 L 203.542969 227.058594 L 238.683594 232.265625 C 238.683594 232.265625 238.871094 232.265625 238.871094 232.265625 C 238.871094 232.265625 239.054688 232.265625 239.054688 232.265625 L 276.242188 226.6875 C 277.171875 226.5 277.917969 225.757812 277.917969 224.828125 C 277.917969 217.574219 272.152344 211.8125 264.902344 211.8125 Z M 199.824219 226.6875 L 192.386719 226.6875 L 192.386719 189.5 L 199.824219 189.5 Z M 238.871094 228.546875 L 203.542969 223.152344 L 203.542969 196.566406 L 215.257812 195.261719 C 215.8125 195.261719 216.1875 195.261719 216.558594 195.636719 L 230.316406 205.863281 C 230.6875 206.234375 231.246094 206.234375 231.617188 206.234375 L 238.683594 205.488281 C 241.289062 205.304688 243.703125 206.046875 245.5625 207.722656 C 247.421875 209.394531 248.726562 211.625 248.726562 214.042969 L 238.871094 215.53125 L 224.179688 214.042969 C 223.066406 214.042969 222.320312 214.601562 222.136719 215.714844 C 221.949219 216.644531 222.695312 217.574219 223.808594 217.761719 L 238.683594 219.25 C 238.871094 219.25 239.054688 219.25 239.054688 219.25 L 264.902344 215.53125 C 269.363281 215.53125 273.269531 218.878906 274.011719 223.152344 Z M 238.871094 228.546875 " fill-opacity="1" fill-rule="nonzero"/></g><path fill="#ffffff" d="M 244.449219 167.1875 C 244.449219 170.347656 246.867188 172.765625 250.027344 172.765625 C 251.140625 172.765625 251.886719 173.507812 251.886719 174.625 C 251.886719 175.738281 251.140625 176.484375 250.027344 176.484375 L 246.308594 176.484375 C 245.191406 176.484375 244.449219 177.226562 244.449219 178.34375 C 244.449219 179.457031 245.191406 180.203125 246.308594 180.203125 L 248.167969 180.203125 L 248.167969 182.0625 C 248.167969 183.175781 248.910156 183.921875 250.027344 183.921875 C 251.140625 183.921875 251.886719 183.175781 251.886719 182.0625 L 251.886719 179.832031 C 254.117188 179.085938 255.605469 177.042969 255.605469 174.625 C 255.605469 171.464844 253.1875 169.046875 250.027344 169.046875 C 248.910156 169.046875 248.167969 168.300781 248.167969 167.1875 C 248.167969 166.070312 248.910156 165.328125 250.027344 165.328125 L 253.746094 165.328125 C 254.859375 165.328125 255.605469 164.582031 255.605469 163.46875 C 255.605469 162.351562 254.859375 161.609375 253.746094 161.609375 L 251.886719 161.609375 L 251.886719 159.75 C 251.886719 158.632812 251.140625 157.890625 250.027344 157.890625 C 248.910156 157.890625 248.167969 158.632812 248.167969 159.75 L 248.167969 161.980469 C 245.9375 162.722656 244.449219 164.769531 244.449219 167.1875 Z M 244.449219 167.1875 " fill-opacity="1" fill-rule="nonzero"/></svg>