<svg xmlns="http://www.w3.org/2000/svg" xmlns:xlink="http://www.w3.org/1999/xlink" width="500" zoomAndPan="magnify" viewBox="0 0 375 374.999991" height="500" preserveAspectRatio="xMidYMid meet" version="1.0"><defs><g/><clipPath id="d381eb10b1"><path d="M 128 47.910156 L 248 47.910156 L 248 169 L 128 169 Z M 128 47.910156 " clip-rule="nonzero"/></clipPath><clipPath id="162eaf3587"><path d="M 107.335938 171 L 267.675781 171 L 267.675781 254.910156 L 107.335938 254.910156 Z M 107.335938 171 " clip-rule="nonzero"/></clipPath><clipPath id="0fdbad3e50"><path d="M 180 91.976562 L 217.035156 91.976562 L 217.035156 130 L 180 130 Z M 180 91.976562 " clip-rule="nonzero"/></clipPath><clipPath id="9e6a46828f"><path d="M 157.785156 120 L 217.035156 120 L 217.035156 151.226562 L 157.785156 151.226562 Z M 157.785156 120 " clip-rule="nonzero"/></clipPath></defs><g clip-path="url(#d381eb10b1)"><path fill="#5271ff" d="M 134.242188 67.75 C 134.242188 59.941406 140.59375 53.585938 148.402344 53.585938 L 227.734375 53.585938 C 235.546875 53.585938 241.886719 59.941406 241.886719 67.75 L 241.886719 168.386719 L 247.558594 168.386719 L 247.558594 67.75 C 247.558594 56.820312 238.660156 47.910156 227.726562 47.910156 L 148.398438 47.910156 C 137.46875 47.910156 128.582031 56.820312 128.582031 67.75 L 128.582031 168.386719 L 134.242188 168.386719 Z M 134.242188 67.75 " fill-opacity="1" fill-rule="nonzero"/></g><path fill="#5271ff" d="M 137.636719 76.910156 L 238.496094 76.910156 L 238.496094 168.386719 L 137.636719 168.386719 Z M 137.636719 76.910156 " fill-opacity="1" fill-rule="nonzero"/><path fill="#5271ff" d="M 227.726562 57.527344 L 148.398438 57.527344 C 142.460938 57.527344 137.632812 62.363281 137.632812 68.296875 L 137.632812 73.632812 L 238.492188 73.632812 L 238.492188 68.300781 C 238.492188 62.371094 233.664062 57.527344 227.726562 57.527344 Z M 202.011719 67.417969 L 174.125 67.417969 C 173.105469 67.417969 172.28125 66.601562 172.28125 65.582031 C 172.28125 64.570312 173.109375 63.75 174.125 63.75 L 202.011719 63.75 C 203.023438 63.75 203.847656 64.574219 203.847656 65.582031 C 203.847656 66.601562 203.023438 67.417969 202.011719 67.417969 Z M 218.597656 68.675781 C 216.886719 68.675781 215.523438 67.289062 215.523438 65.582031 C 215.523438 63.878906 216.894531 62.496094 218.597656 62.496094 C 220.300781 62.496094 221.675781 63.871094 221.675781 65.582031 C 221.675781 67.289062 220.300781 68.675781 218.597656 68.675781 Z M 218.597656 68.675781 " fill-opacity="1" fill-rule="nonzero"/><path fill="#5271ff" d="M 238.628906 171.183594 L 229.113281 171.183594 C 229.765625 178.222656 228.621094 185.339844 225.625 191.964844 C 221.074219 202.007812 212.878906 209.6875 202.558594 213.554688 C 197.890625 215.316406 193.011719 216.210938 188.066406 216.210938 C 170.988281 216.210938 155.457031 205.445312 149.445312 189.425781 C 147.21875 183.515625 146.4375 177.300781 146.996094 171.183594 L 137.511719 171.183594 C 136.976562 178.425781 137.957031 185.753906 140.589844 192.757812 C 147.972656 212.453125 167.050781 225.679688 188.066406 225.679688 C 194.148438 225.679688 200.15625 224.585938 205.890625 222.425781 C 218.589844 217.652344 228.660156 208.21875 234.257812 195.871094 C 237.804688 188.003906 239.265625 179.5625 238.628906 171.183594 Z M 238.628906 171.183594 " fill-opacity="1" fill-rule="nonzero"/><path fill="#5271ff" d="M 226.074219 171.183594 L 150.054688 171.183594 C 149.375 177.167969 150.085938 183.261719 152.246094 189.054688 C 157.835938 203.917969 172.230469 213.90625 188.097656 213.90625 C 192.679688 213.90625 197.207031 213.078125 201.550781 211.445312 C 211.121094 207.851562 218.71875 200.722656 222.945312 191.40625 C 225.867188 184.976562 226.882812 178.023438 226.074219 171.183594 Z M 226.074219 171.183594 " fill-opacity="1" fill-rule="nonzero"/><g clip-path="url(#162eaf3587)"><path fill="#5271ff" d="M 264.417969 191.984375 L 250.992188 185.875 C 248.769531 184.867188 247.144531 182.054688 247.382812 179.613281 L 247.648438 172.28125 C 247.632812 171.921875 247.671875 171.554688 247.738281 171.1875 L 241.730469 171.1875 C 241.78125 172.128906 241.808594 173.066406 241.808594 174.015625 C 241.808594 203.664062 217.691406 227.792969 188.058594 227.792969 C 158.433594 227.792969 134.324219 203.664062 134.324219 174.015625 C 134.324219 173.066406 134.355469 172.128906 134.394531 171.1875 L 128.613281 171.1875 L 128.460938 175.667969 C 128.546875 178.128906 126.757812 180.839844 124.460938 181.695312 L 110.660156 186.882812 C 108.378906 187.742188 107.207031 190.332031 108.0625 192.617188 L 115.601562 212.6875 C 116.46875 214.996094 119.039062 216.152344 121.335938 215.292969 L 135.132812 210.117188 C 137.429688 209.253906 140.546875 210.09375 142.113281 211.996094 L 147.117188 217.335938 C 148.917969 219.003906 149.554688 222.199219 148.539062 224.4375 L 142.445312 237.882812 C 141.441406 240.105469 142.429688 242.757812 144.65625 243.773438 L 164.1875 252.632812 C 166.414062 253.640625 169.058594 252.644531 170.074219 250.421875 L 176.171875 236.964844 C 177.175781 234.734375 180.003906 233.121094 182.4375 233.355469 L 189.769531 233.621094 C 192.207031 233.519531 194.917969 235.335938 195.777344 237.625 L 200.960938 251.441406 C 201.8125 253.742188 204.402344 254.90625 206.683594 254.039062 L 226.753906 246.496094 C 229.039062 245.632812 230.214844 243.058594 229.347656 240.761719 L 224.152344 226.953125 C 223.304688 224.648438 224.152344 221.511719 226.042969 219.964844 L 231.390625 214.941406 C 233.054688 213.152344 236.253906 212.511719 238.476562 213.527344 L 251.90625 219.632812 C 254.144531 220.640625 256.800781 219.640625 257.796875 217.417969 L 266.648438 197.875 C 267.640625 195.640625 266.65625 192.988281 264.417969 191.984375 Z M 264.417969 191.984375 " fill-opacity="1" fill-rule="nonzero"/></g><g clip-path="url(#0fdbad3e50)"><path fill="#ffffff" d="M 198.519531 129.007812 C 208.765625 129.007812 217.035156 120.738281 217.035156 110.492188 C 217.035156 100.246094 208.765625 91.976562 198.519531 91.976562 C 188.273438 91.976562 180.003906 100.246094 180.003906 110.492188 C 180.003906 120.738281 188.273438 129.007812 198.519531 129.007812 Z M 198.519531 94.445312 C 207.40625 94.445312 214.566406 101.605469 214.566406 110.492188 C 214.566406 119.378906 207.40625 126.539062 198.519531 126.539062 C 189.632812 126.539062 182.472656 119.378906 182.472656 110.492188 C 182.472656 101.605469 189.632812 94.445312 198.519531 94.445312 Z M 198.519531 94.445312 " fill-opacity="1" fill-rule="nonzero"/></g><path fill="#ffffff" d="M 198.519531 124.070312 C 206.050781 124.070312 212.097656 118.023438 212.097656 110.492188 C 212.097656 104.074219 207.53125 98.519531 201.234375 97.160156 C 200.617188 97.039062 199.878906 97.53125 199.753906 98.148438 C 199.628906 98.765625 200 99.507812 200.742188 99.628906 C 205.925781 100.617188 209.628906 105.183594 209.628906 110.492188 C 209.628906 116.664062 204.691406 121.601562 198.519531 121.601562 C 192.347656 121.601562 187.410156 116.664062 187.410156 110.492188 C 187.410156 105.183594 191.113281 100.617188 196.296875 99.628906 C 196.914062 99.507812 197.410156 98.765625 197.285156 98.148438 C 197.160156 97.53125 196.542969 97.039062 195.804688 97.160156 C 189.507812 98.519531 184.941406 104.074219 184.941406 110.492188 C 184.941406 118.023438 190.988281 124.070312 198.519531 124.070312 Z M 198.519531 124.070312 " fill-opacity="1" fill-rule="nonzero"/><g clip-path="url(#9e6a46828f)"><path fill="#ffffff" d="M 208.394531 137.648438 C 208.394531 137.648438 208.269531 137.648438 208.269531 137.648438 L 200.246094 138.761719 C 200 136.539062 199.011719 134.441406 197.285156 132.957031 C 195.433594 131.476562 193.210938 130.738281 190.867188 130.984375 L 186.546875 131.476562 L 177.90625 124.933594 C 177.164062 124.316406 176.175781 124.070312 175.3125 124.195312 L 167.660156 125.058594 L 167.660156 121.601562 C 167.660156 120.863281 167.167969 120.367188 166.425781 120.367188 L 159.019531 120.367188 C 158.277344 120.367188 157.785156 120.863281 157.785156 121.601562 L 157.785156 148.757812 C 157.785156 149.5 158.277344 149.992188 159.019531 149.992188 L 166.425781 149.992188 C 167.167969 149.992188 167.660156 149.5 167.660156 148.757812 L 167.660156 147.769531 L 190.988281 151.226562 C 190.988281 151.226562 191.113281 151.226562 191.113281 151.226562 C 191.113281 151.226562 191.238281 151.226562 191.238281 151.226562 L 215.925781 147.523438 C 216.542969 147.402344 217.035156 146.90625 217.035156 146.289062 C 217.035156 141.476562 213.207031 137.648438 208.394531 137.648438 Z M 165.191406 147.523438 L 160.253906 147.523438 L 160.253906 122.835938 L 165.191406 122.835938 Z M 191.113281 148.757812 L 167.660156 145.179688 L 167.660156 127.527344 L 175.4375 126.664062 C 175.808594 126.664062 176.054688 126.664062 176.300781 126.910156 L 185.433594 133.699219 C 185.683594 133.945312 186.050781 133.945312 186.300781 133.945312 L 190.988281 133.453125 C 192.71875 133.328125 194.324219 133.824219 195.558594 134.933594 C 196.792969 136.042969 197.65625 137.527344 197.65625 139.128906 L 191.113281 140.117188 L 181.363281 139.128906 C 180.621094 139.128906 180.128906 139.5 180.003906 140.242188 C 179.878906 140.859375 180.375 141.476562 181.113281 141.597656 L 190.988281 142.585938 C 191.113281 142.585938 191.238281 142.585938 191.238281 142.585938 L 208.394531 140.117188 C 211.355469 140.117188 213.949219 142.339844 214.441406 145.179688 Z M 191.113281 148.757812 " fill-opacity="1" fill-rule="nonzero"/></g><path fill="#ffffff" d="M 194.816406 108.023438 C 194.816406 110.121094 196.421875 111.726562 198.519531 111.726562 C 199.261719 111.726562 199.753906 112.222656 199.753906 112.960938 C 199.753906 113.703125 199.261719 114.195312 198.519531 114.195312 L 196.050781 114.195312 C 195.308594 114.195312 194.816406 114.691406 194.816406 115.429688 C 194.816406 116.171875 195.308594 116.664062 196.050781 116.664062 L 197.285156 116.664062 L 197.285156 117.898438 C 197.285156 118.640625 197.777344 119.132812 198.519531 119.132812 C 199.261719 119.132812 199.753906 118.640625 199.753906 117.898438 L 199.753906 116.417969 C 201.234375 115.925781 202.222656 114.566406 202.222656 112.960938 C 202.222656 110.863281 200.617188 109.257812 198.519531 109.257812 C 197.777344 109.257812 197.285156 108.765625 197.285156 108.023438 C 197.285156 107.285156 197.777344 106.789062 198.519531 106.789062 L 200.988281 106.789062 C 201.730469 106.789062 202.222656 106.296875 202.222656 105.554688 C 202.222656 104.816406 201.730469 104.320312 200.988281 104.320312 L 199.753906 104.320312 L 199.753906 103.085938 C 199.753906 102.347656 199.261719 101.851562 198.519531 101.851562 C 197.777344 101.851562 197.285156 102.347656 197.285156 103.085938 L 197.285156 104.566406 C 195.804688 105.0625 194.816406 106.417969 194.816406 108.023438 Z M 194.816406 108.023438 " fill-opacity="1" fill-rule="nonzero"/><g fill="#5271ff" fill-opacity="1"><g transform="translate(47.433112, 314.524431)"><g><path d="M 23.320312 0 L 31.039062 0 L 19.214844 -32.84375 L 11.113281 -32.84375 L -0.710938 0 L 7.007812 0 L 9.03125 -6.1875 L 21.292969 -6.1875 Z M 10.949219 -12.207031 L 15.164062 -25.234375 L 19.378906 -12.207031 Z M 10.949219 -12.207031 "/></g></g></g><g fill="#5271ff" fill-opacity="1"><g transform="translate(76.875642, 314.524431)"><g><path d="M 16.476562 -22.335938 C 13.957031 -22.335938 11.878906 -21.457031 10.238281 -19.980469 L 10.238281 -21.839844 L 3.230469 -21.894531 L 3.230469 13.136719 L 10.238281 13.191406 L 10.238281 -1.914062 C 11.878906 -0.4375 13.957031 0.4375 16.476562 0.4375 C 22.5 0.4375 27.261719 -4.597656 27.261719 -10.949219 C 27.261719 -17.296875 22.5 -22.335938 16.476562 -22.335938 Z M 15.109375 -5.746094 C 12.207031 -5.746094 9.90625 -8.046875 9.90625 -10.949219 C 9.90625 -13.847656 12.207031 -16.148438 15.109375 -16.148438 C 18.007812 -16.148438 20.308594 -13.847656 20.308594 -10.949219 C 20.308594 -8.046875 18.007812 -5.746094 15.109375 -5.746094 Z M 15.109375 -5.746094 "/></g></g></g><g fill="#5271ff" fill-opacity="1"><g transform="translate(104.950009, 314.524431)"><g><path d="M 16.476562 -22.335938 C 13.957031 -22.335938 11.878906 -21.457031 10.238281 -19.980469 L 10.238281 -21.839844 L 3.230469 -21.894531 L 3.230469 13.136719 L 10.238281 13.191406 L 10.238281 -1.914062 C 11.878906 -0.4375 13.957031 0.4375 16.476562 0.4375 C 22.5 0.4375 27.261719 -4.597656 27.261719 -10.949219 C 27.261719 -17.296875 22.5 -22.335938 16.476562 -22.335938 Z M 15.109375 -5.746094 C 12.207031 -5.746094 9.90625 -8.046875 9.90625 -10.949219 C 9.90625 -13.847656 12.207031 -16.148438 15.109375 -16.148438 C 18.007812 -16.148438 20.308594 -13.847656 20.308594 -10.949219 C 20.308594 -8.046875 18.007812 -5.746094 15.109375 -5.746094 Z M 15.109375 -5.746094 "/></g></g></g><g fill="#5271ff" fill-opacity="1"><g transform="translate(133.024372, 314.524431)"><g><path d="M 23.265625 -26.496094 L 23.265625 -32.84375 L 3.503906 -32.84375 L 3.503906 0 L 23.265625 0 L 23.265625 -6.351562 L 10.730469 -6.351562 L 10.730469 -13.246094 L 21.457031 -13.246094 L 21.457031 -19.597656 L 10.730469 -19.597656 L 10.730469 -26.496094 Z M 23.265625 -26.496094 "/></g></g></g><g fill="#5271ff" fill-opacity="1"><g transform="translate(157.650968, 314.524431)"><g><path d="M 26.605469 -21.894531 L 18.230469 -21.894531 L 13.136719 -15.875 L 8.046875 -21.894531 L -0.273438 -21.894531 L 8.976562 -10.949219 L -0.273438 0 L 8.15625 0 L 13.191406 -5.964844 L 18.230469 0 L 26.605469 0 L 17.351562 -10.894531 Z M 26.605469 -21.894531 "/></g></g></g><g fill="#5271ff" fill-opacity="1"><g transform="translate(183.098473, 314.524431)"><g><path d="M 16.476562 -22.335938 C 13.957031 -22.335938 11.878906 -21.457031 10.238281 -19.980469 L 10.238281 -21.839844 L 3.230469 -21.894531 L 3.230469 13.136719 L 10.238281 13.191406 L 10.238281 -1.914062 C 11.878906 -0.4375 13.957031 0.4375 16.476562 0.4375 C 22.5 0.4375 27.261719 -4.597656 27.261719 -10.949219 C 27.261719 -17.296875 22.5 -22.335938 16.476562 -22.335938 Z M 15.109375 -5.746094 C 12.207031 -5.746094 9.90625 -8.046875 9.90625 -10.949219 C 9.90625 -13.847656 12.207031 -16.148438 15.109375 -16.148438 C 18.007812 -16.148438 20.308594 -13.847656 20.308594 -10.949219 C 20.308594 -8.046875 18.007812 -5.746094 15.109375 -5.746094 Z M 15.109375 -5.746094 "/></g></g></g><g fill="#5271ff" fill-opacity="1"><g transform="translate(211.172842, 314.524431)"><g><path d="M 25.507812 -11.003906 C 25.507812 -17.84375 20.800781 -22.390625 13.738281 -22.390625 C 6.679688 -22.390625 1.695312 -17.789062 1.695312 -10.949219 C 1.695312 -4.105469 6.625 0.4375 13.957031 0.4375 C 20.035156 0.4375 24.085938 -2.792969 25.179688 -7.554688 L 18.449219 -7.554688 C 17.84375 -5.800781 16.257812 -4.761719 13.847656 -4.761719 C 10.675781 -4.761719 9.03125 -6.679688 8.757812 -9.796875 L 25.507812 -9.796875 Z M 13.847656 -17.023438 C 16.203125 -17.023438 17.570312 -15.929688 18.285156 -14.011719 L 9.195312 -14.011719 C 9.90625 -15.875 11.386719 -17.023438 13.847656 -17.023438 Z M 13.847656 -17.023438 "/></g></g></g><g fill="#5271ff" fill-opacity="1"><g transform="translate(237.441242, 314.524431)"><g><path d="M 16.476562 -22.335938 C 13.957031 -22.335938 11.769531 -21.128906 10.238281 -19.214844 L 10.238281 -21.894531 L 3.230469 -21.894531 L 3.230469 0 L 10.238281 0 L 10.238281 -12.699219 C 10.238281 -14.671875 11.878906 -16.148438 13.902344 -16.148438 C 15.929688 -16.148438 17.351562 -14.671875 17.351562 -12.699219 L 17.351562 0 L 24.304688 0 L 24.304688 -13.847656 C 24.304688 -18.667969 20.800781 -22.335938 16.476562 -22.335938 Z M 16.476562 -22.335938 "/></g></g></g><g fill="#5271ff" fill-opacity="1"><g transform="translate(263.654905, 314.524431)"><g><path d="M 10.292969 0.4375 C 15.21875 0.4375 18.230469 -2.574219 18.230469 -6.679688 C 18.230469 -11.058594 14.617188 -12.808594 11.496094 -14.011719 C 9.90625 -14.671875 9.140625 -15 9.140625 -15.820312 C 9.140625 -16.53125 9.6875 -17.078125 10.894531 -17.078125 C 12.316406 -17.078125 13.628906 -16.3125 14.289062 -15.492188 L 17.789062 -19.433594 C 16.148438 -21.074219 13.464844 -22.335938 10.402344 -22.335938 C 5.417969 -22.335938 2.246094 -19.050781 2.246094 -15.328125 C 2.246094 -10.949219 6.625 -9.46875 9.140625 -8.539062 C 11.113281 -7.773438 11.769531 -7.226562 11.769531 -6.460938 C 11.769531 -5.582031 11.003906 -5.089844 9.851562 -5.089844 C 8.703125 -5.089844 7.171875 -5.527344 6.1875 -7.390625 L 1.039062 -4.816406 C 2.355469 -1.421875 6.40625 0.4375 10.292969 0.4375 Z M 10.292969 0.4375 "/></g></g></g><g fill="#5271ff" fill-opacity="1"><g transform="translate(282.042676, 314.524431)"><g><path d="M 25.507812 -11.003906 C 25.507812 -17.84375 20.800781 -22.390625 13.738281 -22.390625 C 6.679688 -22.390625 1.695312 -17.789062 1.695312 -10.949219 C 1.695312 -4.105469 6.625 0.4375 13.957031 0.4375 C 20.035156 0.4375 24.085938 -2.792969 25.179688 -7.554688 L 18.449219 -7.554688 C 17.84375 -5.800781 16.257812 -4.761719 13.847656 -4.761719 C 10.675781 -4.761719 9.03125 -6.679688 8.757812 -9.796875 L 25.507812 -9.796875 Z M 13.847656 -17.023438 C 16.203125 -17.023438 17.570312 -15.929688 18.285156 -14.011719 L 9.195312 -14.011719 C 9.90625 -15.875 11.386719 -17.023438 13.847656 -17.023438 Z M 13.847656 -17.023438 "/></g></g></g><g fill="#5271ff" fill-opacity="1"><g transform="translate(308.311076, 314.524431)"><g><path d="M 10.292969 0.4375 C 15.21875 0.4375 18.230469 -2.574219 18.230469 -6.679688 C 18.230469 -11.058594 14.617188 -12.808594 11.496094 -14.011719 C 9.90625 -14.671875 9.140625 -15 9.140625 -15.820312 C 9.140625 -16.53125 9.6875 -17.078125 10.894531 -17.078125 C 12.316406 -17.078125 13.628906 -16.3125 14.289062 -15.492188 L 17.789062 -19.433594 C 16.148438 -21.074219 13.464844 -22.335938 10.402344 -22.335938 C 5.417969 -22.335938 2.246094 -19.050781 2.246094 -15.328125 C 2.246094 -10.949219 6.625 -9.46875 9.140625 -8.539062 C 11.113281 -7.773438 11.769531 -7.226562 11.769531 -6.460938 C 11.769531 -5.582031 11.003906 -5.089844 9.851562 -5.089844 C 8.703125 -5.089844 7.171875 -5.527344 6.1875 -7.390625 L 1.039062 -4.816406 C 2.355469 -1.421875 6.40625 0.4375 10.292969 0.4375 Z M 10.292969 0.4375 "/></g></g></g></svg>